<svg height='300px' width='300px'  fill="#2e7c31" xmlns="http://www.w3.org/2000/svg" xmlns:xlink="http://www.w3.org/1999/xlink" version="1.1" x="0px" y="0px" viewBox="0 0 100 100" style="enable-background:new 0 0 100 100;" xml:space="preserve"><g><path d="M51.1383667,16.4153595c0.1220703,0.0515747,0.2540894,0.0714722,0.3860474,0.0714722   c0.2744141,0,0.5285034-0.1012573,0.7215576-0.2947998c0.1929932-0.1935425,0.2947388-0.4475708,0.2947388-0.7214966   c0-0.132019-0.0302734-0.2639771-0.0813599-0.3860474c-0.0506592-0.1221313-0.121582-0.2342529-0.2133789-0.3355103   c-0.1012573-0.0912476-0.2133789-0.1627197-0.3349609-0.2133789c-0.3761597-0.1627197-0.8232422-0.0714111-1.1080933,0.2133789   c-0.0913086,0.1012573-0.1622925,0.2133789-0.2133789,0.3355103c-0.0610352,0.1220703-0.0813599,0.2540283-0.0813599,0.3860474   c0,0.2739258,0.1016846,0.5279541,0.2947388,0.7214966C50.9046631,16.2833405,51.0162964,16.3647614,51.1383667,16.4153595z"></path><path d="M55.2749634,81.0206451c-0.1022339-0.2441406-0.2243042-0.4882812-0.3761597-0.7016602   c-0.1428833-0.2233276-0.3156128-0.4367065-0.49823-0.6193237c-0.1935425-0.1835938-0.3959961-0.3563232-0.6203003-0.5081177   c-0.2232666-0.1429443-0.4569702-0.2749634-0.7006226-0.3761597c-0.2442017-0.1012573-0.49823-0.1726685-0.762207-0.2233276   c-1.3214722-0.2749023-2.7238159,0.1618042-3.6691895,1.107605c-0.1825562,0.1826172-0.3552856,0.3959961-0.5081177,0.6193237   c-0.1419067,0.2133789-0.2744141,0.4575195-0.3756104,0.7016602c-0.0918579,0.2441406-0.1727295,0.4981689-0.2238159,0.762207   c-0.0506592,0.2540283-0.0814209,0.5279541-0.0814209,0.7929688c0,0.2639771,0.0307617,0.5279541,0.0814209,0.7919922   c0.0510864,0.2540283,0.131958,0.519043,0.2337036,0.762207c0.1017456,0.2441406,0.2238159,0.4783325,0.3657227,0.7016602   c0.152832,0.2233276,0.3255615,0.4267578,0.5081177,0.6203003c0.7622681,0.7512817,1.8092651,1.1889648,2.8761597,1.1889648   c1.0674438,0,2.1139526-0.4376831,2.8761597-1.1889648c0.1826172-0.1935425,0.3553467-0.3969727,0.49823-0.6203003   c0.1518555-0.2233276,0.2739258-0.4575195,0.3761597-0.7016602c0.1011963-0.2431641,0.1826172-0.5081787,0.2332153-0.762207   c0.0505981-0.2640381,0.0813599-0.5280151,0.0813599-0.7919922c0-0.2650146-0.0307617-0.5389404-0.0813599-0.7929688   C55.4575806,81.5188141,55.3761597,81.2647858,55.2749634,81.0206451z"></path><path d="M28.0993652,29.9118195c-0.1523438-0.3662109-0.3453979-0.7214966-0.5592651-1.0470581   c-0.2232666-0.3354492-0.477356-0.6500244-0.762207-0.9249268c-0.2843018-0.2838745-0.5889893-0.5379639-0.9244385-0.762207   c-0.3354492-0.2233276-0.6808472-0.4059448-1.0570068-0.5587769c-0.3657227-0.1518555-0.7522583-0.2739258-1.1383667-0.3453979   c-1.9814453-0.4058838-4.0854492,0.2441406-5.49823,1.6663818c-0.2843018,0.2749023-0.5383911,0.5894775-0.762207,0.9249268   c-0.2232666,0.3255615-0.4063721,0.6808472-0.5587158,1.0470581c-0.1523438,0.3761597-0.2744141,0.7523193-0.3453979,1.1483154   c-0.0813599,0.3860474-0.1220703,0.7929688-0.1220703,1.1889648c0,1.6057739,0.6505737,3.1808472,1.7883911,4.3092651   c0.2744141,0.2848511,0.5895386,0.5388794,0.9249878,0.762207c0.3250122,0.2133789,0.6808472,0.4069214,1.0470581,0.5587158   c0.3756104,0.1528931,0.75177,0.2640381,1.1482544,0.3453979c0.3861084,0.0813599,0.7924805,0.1220703,1.1889648,0.1220703   s0.8029175-0.0407104,1.1889648-0.1220703c0.3861084-0.0813599,0.772644-0.1925049,1.1383667-0.3453979   c0.3761597-0.1517944,0.7215576-0.3453369,1.0570068-0.5587158c0.3354492-0.2233276,0.6401367-0.477356,0.9244385-0.762207   c0.2848511-0.2848511,0.5389404-0.5895386,0.762207-0.9249878c0.2138672-0.3354492,0.4069214-0.6808472,0.5592651-1.0569458   c0.1523438-0.3652344,0.2639771-0.7523193,0.3453979-1.1383667c0.0813599-0.3959961,0.1220703-0.7919922,0.1220703-1.1889648   c0-0.3959961-0.0407104-0.8029175-0.1220703-1.1889648C28.3633423,30.6641388,28.251709,30.2879791,28.0993652,29.9118195z"></path><path d="M83.3953247,64.6281281c-0.0813599-0.1826172-0.1726685-0.3562622-0.28479-0.5180664   c-0.1121826-0.1726685-0.2332153-0.3255005-0.3761597-0.4674072c-0.7116089-0.7116089-1.7576294-1.0371704-2.7540894-0.8336792   c-0.1925049,0.0406494-0.3860474,0.1011963-0.5686646,0.1726685c-0.1835938,0.0813599-0.3563232,0.1726685-0.5289917,0.2848511   c-0.1627808,0.111145-0.3146362,0.2332153-0.4575195,0.3761597c-0.1419067,0.1419067-0.2739258,0.2947388-0.3860474,0.4674072   c-0.1012573,0.1618042-0.2034912,0.3354492-0.2739258,0.5180664c-0.0814209,0.1826172-0.132019,0.3761597-0.1727295,0.5795898   c-0.0406494,0.1925659-0.0615234,0.3959961-0.0615234,0.588562c0,0.2034302,0.020874,0.3969727,0.0615234,0.6004028   c0.0407104,0.1925659,0.0913086,0.3861084,0.1727295,0.5687256c0.0704346,0.1826172,0.1726685,0.3552856,0.2739258,0.5289307   c0.1121216,0.1618042,0.2441406,0.324585,0.3860474,0.456543c0.1428833,0.1429443,0.2947388,0.2749023,0.4575195,0.3761597   c0.1726685,0.1121216,0.3453979,0.2133789,0.5289917,0.2848511c0.1826172,0.0813599,0.3761597,0.131958,0.5686646,0.1726685   c0.2034912,0.0407104,0.3959961,0.0605469,0.5994263,0.0605469c0.1935425,0,0.3970337-0.0198364,0.5895386-0.0605469   c0.2034912-0.0407104,0.3861084-0.0913086,0.5795898-0.1726685c0.1826172-0.0714722,0.3553467-0.1727295,0.5180664-0.2848511   c0.1727295-0.1012573,0.3255615-0.2332153,0.4674683-0.3761597c0.1429443-0.131958,0.2639771-0.2947388,0.3761597-0.456543   c0.1121216-0.173645,0.2034302-0.3463135,0.28479-0.5289307c0.0704956-0.1826172,0.132019-0.3761597,0.1727295-0.5687256   c0.0406494-0.2034302,0.0605469-0.3969727,0.0605469-0.6004028c0-0.1925659-0.0198975-0.3959961-0.0605469-0.588562   C83.5273438,65.0042877,83.4658203,64.8107452,83.3953247,64.6281281z"></path><path d="M27.1644897,63.8560333c-0.1325073-0.3057251-0.2848511-0.6004639-0.4674683-0.8743896   c-0.1930542-0.2848511-0.4069214-0.5388794-0.640625-0.7721558c-1.1785889-1.1889648-2.9267578-1.7278442-4.5831909-1.392395   c-0.3250122,0.0605469-0.6401367,0.1627808-0.9453125,0.2848511c-0.3151245,0.131958-0.6098633,0.2838135-0.8837891,0.4674072   c-0.2744141,0.1925659-0.5389404,0.4059448-0.772644,0.6401367c-0.2337036,0.2332764-0.4470825,0.4873047-0.630188,0.7721558   c-0.1826172,0.2739258-0.3354492,0.5686646-0.4674683,0.8743896c-0.1220703,0.3046265-0.2233276,0.6192627-0.2843628,0.9447632   c-0.0714111,0.3355103-0.1016846,0.6709595-0.1016846,0.9954834c0,0.3354492,0.0302734,0.6708984,0.1016846,0.9963989   c0.0610352,0.3255615,0.1622925,0.6401367,0.2843628,0.9448242c0.132019,0.3156128,0.2848511,0.6103516,0.4674683,0.8842773   c0.1831055,0.2749634,0.3964844,0.5389404,0.630188,0.7721558c0.2337036,0.2342529,0.49823,0.4476318,0.772644,0.630188   c0.2739258,0.1836548,0.5791016,0.3354492,0.8837891,0.4674683c0.3051758,0.1220703,0.6203003,0.2243042,0.9453125,0.2848511   c0.3354492,0.0714722,0.6604614,0.1011963,0.9959106,0.1011963c1.3413086,0,2.6424561-0.5379028,3.5872803-1.4837036   c0.2337036-0.2332153,0.4475708-0.4971924,0.640625-0.7721558c0.1826172-0.2739258,0.3349609-0.5686646,0.4674683-0.8842773   c0.121582-0.3046875,0.2232666-0.6192627,0.2843018-0.9448242c0.0714722-0.3255005,0.1017456-0.6609497,0.1017456-0.9963989   c0-0.3245239-0.0302734-0.6599731-0.1017456-0.9954834C27.3877563,64.475296,27.2860718,64.1606598,27.1644897,63.8560333z"></path><path d="M79.4523315,33.9362946c0.111145,0.0813599,0.2232666,0.1419067,0.3453369,0.1934814   c0.1220703,0.0506592,0.2540894,0.0814209,0.3861084,0.1112061c0.1220703,0.0307617,0.2639771,0.0406494,0.3959351,0.0406494   c0.5389404,0,1.0470581-0.2133789,1.4331665-0.5994263c0.3860474-0.3761597,0.5994263-0.8942261,0.5994263-1.4331055   c0-0.132019-0.0099487-0.2640381-0.0407104-0.3959961c-0.0297852-0.132019-0.0605469-0.2640381-0.111145-0.3861084   c-0.0515747-0.1220703-0.1220703-0.2341919-0.1935425-0.3453369c-0.0714111-0.1121826-0.1627197-0.2133789-0.2540283-0.3156128   c-0.4674683-0.4674683-1.1681519-0.6808472-1.8291016-0.5488281c-0.132019,0.020813-0.2640381,0.0615234-0.3861084,0.1121216   c-0.1220703,0.0506592-0.2341919,0.1112061-0.3453369,0.1925659c-0.1121826,0.0714722-0.2133789,0.152832-0.3156128,0.2441406   c-0.0913086,0.1022339-0.1727295,0.2034302-0.2441406,0.3156128c-0.0803833,0.111145-0.1419678,0.2232666-0.1925659,0.3453369   s-0.0913086,0.2540894-0.1121216,0.3861084c-0.0297852,0.131958-0.0407104,0.2639771-0.0407104,0.3959961   c0,0.5488281,0.2133789,1.0569458,0.5895386,1.4331055C79.2389526,33.7735138,79.3401489,33.8648224,79.4523315,33.9362946z"></path><path d="M40.8435669,17.4425201c-0.1627808-0.3969727-0.3657227-0.78302-0.5999146-1.1383057   C40,15.9380035,39.7255859,15.6025543,39.4208984,15.2978668c-0.3052368-0.3046875-0.640686-0.5796509-1.0064087-0.8237915   c-0.3557739-0.2332153-0.7418213-0.4465942-1.1383057-0.609375c-0.3959961-0.1627197-0.8128662-0.28479-1.239624-0.3760986   c-0.8540039-0.1727295-1.7278442-0.1727295-2.5813599,0c-0.4168701,0.0913086-0.8336792,0.2133789-1.2296753,0.3760986   c-0.4064331,0.1627808-0.7825317,0.3761597-1.1482544,0.609375c-0.355835,0.2441406-0.6912842,0.519104-0.99646,0.8237915   c-0.3046875,0.3046875-0.5889893,0.6401367-0.8227539,1.0063477c-0.2441406,0.3552856-0.4475708,0.741333-0.6098633,1.1383057   c-0.1627808,0.3959961-0.2947388,0.8128662-0.3761597,1.2296753c-0.0913086,0.4267578-0.131958,0.8634644-0.131958,1.2902222   c0,1.7477417,0.7110596,3.4448242,1.9407349,4.6744995c1.2301636,1.2306519,2.9272461,1.9313354,4.6651001,1.9313354   c1.737793,0,3.4453125-0.7006836,4.6749878-1.9313354c1.2296143-1.2296753,1.9307861-2.9267578,1.9307861-4.6744995   c0-0.4267578-0.0406494-0.8634644-0.131958-1.2902222C41.1383057,18.2553864,41.0162354,17.8385162,40.8435669,17.4425201z"></path><path d="M67.6022949,74.5874786c-0.2232666,0.0505981-0.4475708,0.1220703-0.6609497,0.2034912   c-0.2133789,0.0913086-0.4267578,0.2034302-0.6193237,0.3354492c-0.1935425,0.1220703-0.3760986,0.2739258-0.5388794,0.4366455   c-0.1627808,0.1627808-0.3156128,0.3453979-0.4476318,0.5389404c-0.1220703,0.1925049-0.2332153,0.3959961-0.3245239,0.6192627   c-0.0922852,0.2143555-0.152832,0.4376831-0.2034302,0.6610107c-0.0407104,0.2341919-0.0615234,0.4674072-0.0615234,0.6907349   c0,0.9458008,0.3760986,1.8598633,1.0371094,2.520874c0.1627808,0.1627197,0.3453369,0.3145752,0.5388794,0.4465942   c0.1925659,0.1220703,0.4059448,0.2341919,0.6193237,0.3255005c0.2133789,0.0814209,0.4376831,0.152832,0.6609497,0.2034912   c0.2332764,0.0406494,0.4674683,0.0605469,0.7006836,0.0605469c0.9349365,0,1.8499756-0.3751831,2.5109253-1.0361328   c0.6599731-0.6610107,1.0460815-1.5750732,1.0460815-2.520874c0-0.9348755-0.3861084-1.848938-1.0460815-2.5099487   C69.9901733,74.7403107,68.760498,74.3542633,67.6022949,74.5874786z"></path><path d="M19.0645142,54.5059967c0.3557739-0.0714111,0.7115479-0.1825562,1.0469971-0.3255005   c0.3349609-0.132019,0.6605225-0.3046875,0.96521-0.5081177c0.3051758-0.2034912,0.5895386-0.4367065,0.8435669-0.7006836   c1.0465698-1.0371094,1.6464844-2.4801636,1.6464844-3.9440308c0-1.4728394-0.5999146-2.9158936-1.6360474-3.9530029   c-0.2644653-0.2639771-0.5488281-0.49823-0.8540039-0.7006836c-0.3046875-0.2034302-0.630249-0.3761597-0.96521-0.5081177   c-0.3354492-0.1429443-0.6912231-0.2540894-1.0469971-0.3255615c-1.8192139-0.3662109-3.750061,0.2332764-5.0407104,1.5343628   c-0.2640381,0.2540894-0.4977417,0.5388794-0.7011719,0.8435669c-0.2034912,0.3046875-0.3761597,0.630249-0.5081787,0.9656982   c-0.142395,0.3354492-0.2540283,0.6907349-0.3250122,1.0470581c-0.0714722,0.3652344-0.1017456,0.7314453-0.1017456,1.0966797   c0,1.4638672,0.5895386,2.9069214,1.6361084,3.9440308c1.0366211,1.0460205,2.4796143,1.6455078,3.9534302,1.6455078   C18.3330688,54.6172028,18.7086792,54.5774689,19.0645142,54.5059967z"></path><path d="M86.8709717,47.2293243c-0.9448242-0.9448242-2.6528931-0.9448242-3.5977173,0   c-0.1121216,0.1121216-0.2232666,0.2441406-0.3155518,0.3860474c-0.0913086,0.132019-0.1618042,0.2848511-0.2332764,0.4366455   c-0.0615234,0.1528931-0.1121216,0.3156128-0.1419067,0.4783936c-0.0307617,0.1627808-0.0515747,0.3245239-0.0515747,0.4972534   c0,0.1627197,0.020813,0.3255005,0.0515747,0.4882812c0.0297852,0.1627197,0.0803833,0.3255005,0.1419067,0.477356   c0.0714722,0.152832,0.1419678,0.3046875,0.2332764,0.4376831c0.0922852,0.1419067,0.2034302,0.2739258,0.3155518,0.3860474   c0.477417,0.477356,1.128479,0.741394,1.7983398,0.741394c0.6709595,0,1.3319092-0.2640381,1.7993774-0.741394   c0.111145-0.1121216,0.2232666-0.2441406,0.3145752-0.3860474c0.0913086-0.1329956,0.1727295-0.2848511,0.2342529-0.4376831   c0.0605469-0.1518555,0.111145-0.3146362,0.1419067-0.477356c0.0407104-0.1627808,0.0505981-0.3255615,0.0505981-0.4882812   C87.6123047,48.3577423,87.3483276,47.6967316,86.8709717,47.2293243z"></path><path d="M38.9732666,76.3252716c-0.121582-0.2739258-0.2540894-0.5388794-0.4267578-0.7820435   c-0.1622314-0.2540894-0.3552856-0.4882812-0.5691528-0.7016602c-0.2030029-0.2034912-0.4367065-0.3959961-0.6907959-0.5686646   c-0.2441406-0.1627808-0.5081177-0.3057251-0.7929688-0.4168701c-0.2744141-0.1121216-0.5587158-0.2034302-0.8535156-0.2639771   c-1.4837036-0.2947388-3.0587769,0.1925049-4.1261597,1.2495117c-0.2133789,0.2133789-0.4063721,0.4475708-0.5691528,0.7016602   c-0.1622925,0.2431641-0.3046875,0.5081177-0.4163208,0.7820435c-0.1220703,0.2848511-0.2034912,0.5697021-0.2645264,0.8644409   c-0.0610352,0.2937622-0.0913086,0.588562-0.0913086,0.8833008c0,1.2098389,0.487793,2.388855,1.3413086,3.2423706   c0.8535156,0.8435669,2.0325928,1.3308716,3.2319946,1.3308716c0.3046875,0,0.5994263-0.0297241,0.894165-0.0813599   c0.2947998-0.0605469,0.5791016-0.1518555,0.8535156-0.2639771c0.2848511-0.111145,0.5488281-0.2540894,0.7929688-0.4168701   c0.2540894-0.1726685,0.487793-0.3552856,0.6907959-0.5686646c0.8540039-0.8535156,1.3417969-2.0325317,1.3417969-3.2423706   c0-0.2947388-0.0307617-0.5895386-0.0917969-0.8833008C39.1767578,76.8949738,39.0854492,76.6101227,38.9732666,76.3252716z"></path><path d="M68.3029785,21.4967804c0.3969727,0,0.7830811-0.1627808,1.0679321-0.456543   c0.1517944-0.1429443,0.2639771-0.3056641,0.3344116-0.4882812c0.0814209-0.1826172,0.1220703-0.3861084,0.1220703-0.5895386   c0-0.3959961-0.1726685-0.7929688-0.4564819-1.0768433c-0.5697021-0.5696411-1.5859985-0.5597534-2.1546631,0   c-0.2749023,0.2838745-0.4376831,0.6808472-0.4376831,1.0768433c0,0.4069214,0.152832,0.7929688,0.4376831,1.0778198   C67.5109863,21.3339996,67.8970947,21.4967804,68.3029785,21.4967804z"></path></g></svg>